<svg width="240" height="238" viewBox="0 0 240 238" fill="none" xmlns="http://www.w3.org/2000/svg">
<path d="M233.661 83.3581C232.722 80.437 231.669 77.5676 230.503 74.7497L185.607 90.5228C186.792 93.2088 187.797 95.9657 188.617 98.7765L233.661 83.3581Z" fill="#0025F5"/>
<path d="M238.243 132.147C238.676 128.29 238.929 124.381 239.002 120.42L190.372 117.464C190.372 117.721 190.372 117.981 190.372 118.241C190.373 121.784 190.12 125.323 189.613 128.83L238.243 132.147Z" fill="#0025F5"/>
<path d="M222.481 178.866C224.626 175.218 226.576 171.461 228.324 167.609L184.882 145.495C183.243 149.449 181.253 153.25 178.936 156.852L222.481 178.866Z" fill="#0025F5"/>
<path d="M233.179 156.174C234.412 152.431 235.462 148.612 236.33 144.715L189.867 132.147C189.167 135.777 188.189 139.346 186.941 142.823L233.179 156.174Z" fill="#0025F5"/>
<path d="M237.667 107.462C237.368 104.079 236.935 100.739 236.369 97.4421L189.613 103.145C190.33 106.543 190.807 109.991 191.043 113.46L237.667 107.462Z" fill="#0025F5"/>
<path d="M222.985 60.8322C221.551 58.2955 220.024 55.8155 218.407 53.3922L177.602 78.1491C179.236 80.484 180.726 82.9147 182.064 85.4278L222.985 60.8322Z" fill="#0025F5"/>
<path d="M209.636 40.8912C207.766 38.7663 205.82 36.7041 203.798 34.7047L168.257 67.0078C170.406 69.0192 172.427 71.1588 174.31 73.4145L209.636 40.8912Z" fill="#0025F5"/>
<path d="M192.284 23.5506C190.085 21.8516 187.829 20.2306 185.516 18.6875L157.579 58.3944C159.683 59.7355 161.717 61.1848 163.673 62.7365L192.284 23.5506Z" fill="#0025F5"/>
<path d="M170.926 11.1036C168.659 9.99907 166.35 8.96742 164.001 8.0087L145.564 52.1021C147.576 52.88 149.543 53.7551 151.465 54.7274L170.926 11.1036Z" fill="#0025F5"/>
<path d="M148.236 2.86843C145.734 2.28972 143.203 1.77852 140.643 1.33484L130.884 47.9242C133.31 48.3004 135.695 48.7885 138.039 49.3884L148.236 2.86843Z" fill="#0025F5"/>
<path d="M27.6956 194.838C9.80636 173.511 0.0256731 146.592 0.0684994 118.801C0.0684994 53.189 53.4555 6.10352e-05 119.335 6.10352e-05H119.793L119.938 47.7173H119.335C79.9215 47.7173 47.968 79.5423 47.968 118.803C47.968 158.065 79.9302 189.884 119.343 189.884C131.065 189.891 142.608 187.02 152.95 181.523C163.292 176.027 172.114 168.075 178.635 158.373L216.309 187.983C213.572 191.782 210.614 195.418 207.449 198.872L170.644 169.531L200.165 206.145C196.566 209.456 192.766 212.543 188.787 215.389L159.982 180.315L181.03 220.494C176.655 223.134 172.114 225.491 167.435 227.55L147.411 189.657L158.823 230.938C153.772 232.701 148.606 234.121 143.362 235.189L132.839 197.858L135.249 236.552C129.976 237.249 124.662 237.599 119.343 237.598H118.579L116.14 203.018L111.399 237.339C105.431 236.949 99.5013 236.113 93.6592 234.838L97.5363 205.148L87.5415 233.335C81.4456 231.664 75.4945 229.506 69.7459 226.884L78.2353 202.652L65.0665 224.626C59.2101 221.64 53.612 218.176 48.3298 214.27L58.4879 197.032L45.252 211.919C39.6542 207.493 34.4642 202.578 29.7435 197.233L38.7405 187.158L27.6956 194.838Z" fill="#0025F5"/>
</svg>
