<svg width="50" height="50" viewBox="0 0 50 50" fill="none" xmlns="http://www.w3.org/2000/svg">
<g clip-path="url(#clip0_4622_343292)">
<circle cx="25" cy="25" r="24.5" stroke="#0025F5"/>
<path d="M37.1289 24.5326L37.1289 14.8752C37.1289 12.8472 35.4848 11.2031 33.4568 11.2031L17.4745 11.2031C15.4464 11.2031 13.8023 12.8472 13.8023 14.8753L13.8023 24.8103" stroke="#0025F5"/>
<path d="M13.8035 24.532L20.3818 31.1103C23.1902 33.9187 27.7434 33.9187 30.5518 31.1103L37.3893 24.2728" stroke="#0025F5"/>
<path d="M31.5731 11.202L30.5499 10.1788C27.7415 7.37039 23.1882 7.37039 20.3798 10.1788L19.3566 11.202" stroke="#0025F5"/>
<path d="M13.8038 16.7578L11.2604 19.3011C10.3996 20.162 9.91602 21.3295 9.91602 22.5469V34.3834C9.91602 36.9185 11.9711 38.9736 14.5062 38.9736H36.4279C38.963 38.9736 41.0181 36.9185 41.0181 34.3834V23.7002L41.0175 22.5454C41.0168 21.3289 40.5333 20.1624 39.6731 19.3022L37.1287 16.7578" stroke="#0025F5"/>
<path d="M19.418 15.5547H32.3772" stroke="#0025F5" stroke-linecap="round" stroke-linejoin="round"/>
<path d="M19.418 19.875H32.3772" stroke="#0025F5" stroke-linecap="round" stroke-linejoin="round"/>
<path d="M19.418 24.1914H32.3772" stroke="#0025F5" stroke-linecap="round" stroke-linejoin="round"/>
</g>
<defs>
<clipPath id="clip0_4622_343292">
<rect width="50" height="50" fill="white"/>
</clipPath>
</defs>
</svg>
